<svg width="38" height="38" viewBox="0 0 38 38" fill="none" xmlns="http://www.w3.org/2000/svg">
<path fill-rule="evenodd" clip-rule="evenodd" d="M18.9997 4.75065C11.1296 4.75065 4.74967 11.1306 4.74967 19.0007C4.74967 26.8707 11.1296 33.2506 18.9997 33.2506C26.8697 33.2506 33.2497 26.8707 33.2497 19.0007C33.2497 11.1306 26.8697 4.75065 18.9997 4.75065ZM1.58301 19.0007C1.58301 9.38169 9.38071 1.58398 18.9997 1.58398C28.6186 1.58398 36.4163 9.38169 36.4163 19.0007C36.4163 28.6196 28.6186 36.4173 18.9997 36.4173C9.38071 36.4173 1.58301 28.6196 1.58301 19.0007Z" fill="#F8F8F8"/>
<path fill-rule="evenodd" clip-rule="evenodd" d="M19.0003 7.91602C19.8748 7.91602 20.5837 8.6249 20.5837 9.49935V18.0208L26.0417 20.7498C26.8239 21.1409 27.1409 22.092 26.7498 22.8741C26.3588 23.6562 25.4077 23.9733 24.6256 23.5822L18.2922 20.4155C17.7558 20.1473 17.417 19.5991 17.417 18.9993V9.49935C17.417 8.6249 18.1259 7.91602 19.0003 7.91602Z" fill="#F8F8F8"/>
</svg>
